<svg width="726" height="726" viewBox="0 0 726 726" fill="none" xmlns="http://www.w3.org/2000/svg">
<path d="M700.869 714.615C702.909 714.615 704.949 713.834 706.503 712.28C709.619 709.164 709.619 704.128 706.503 701.012L385.808 380.316C382.692 377.201 377.655 377.201 374.539 380.316C371.424 383.432 371.424 388.469 374.539 391.585L695.235 712.28C696.797 713.834 698.837 714.615 700.869 714.615Z" fill="#6366F1"/>
<path d="M89.1063 345.747C92.4533 345.747 95.7206 346.066 98.94 346.528C102.693 326.502 115.101 309.544 132.131 299.67C148.69 321.808 166.876 344.488 186.75 367.717L184.79 445.088H100.151H27.4742C22.9079 435.884 20.2782 425.548 20.2782 414.583C20.2782 376.563 51.0942 345.747 89.1063 345.747Z" fill="#3B82F6"/>
<path d="M532.341 210.218C518.587 196.464 499.493 188.79 480.089 189.347L354.458 192.535C332.36 173.625 310.78 156.308 289.662 140.394C306.261 116.097 334.169 100.135 365.821 100.135C370.308 100.135 374.675 100.565 378.994 101.187C386.987 58.417 424.449 26.0391 469.53 26.0391C514.61 26.0391 552.072 58.417 560.073 101.171C564.385 100.549 568.759 100.119 573.246 100.119C624.16 100.119 665.431 141.39 665.431 192.304C665.431 206.999 661.901 220.841 655.789 233.169H555.292L532.341 210.218Z" fill="#3B82F6"/>
<path d="M192.066 247.027C206.123 247.027 219.343 241.552 229.281 231.607C239.226 221.662 244.709 208.449 244.709 194.392C244.709 180.327 239.226 167.114 229.281 157.169C219.343 147.223 206.123 141.749 192.066 141.749C178 141.749 164.78 147.223 154.843 157.169C144.897 167.114 139.423 180.327 139.423 194.392C139.423 208.449 144.897 221.67 154.843 231.607C164.78 241.552 178.008 247.027 192.066 247.027ZM192.066 157.687C201.86 157.687 211.08 161.504 218.013 168.437C224.946 175.37 228.771 184.582 228.771 194.392C228.771 204.194 224.954 213.406 218.013 220.339C211.08 227.272 201.867 231.089 192.066 231.089C182.264 231.089 173.044 227.272 166.111 220.339C159.178 213.406 155.36 204.194 155.36 194.392C155.36 184.59 159.178 175.37 166.111 168.437C173.052 161.504 182.264 157.687 192.066 157.687Z" fill="#6366F1"/>
<path d="M4.90595 37.0364C4.23656 29.8404 6.77866 22.7798 11.8947 17.6638C17.0108 12.5477 24.1192 10.0056 31.2673 10.675C123.939 19.3532 234.54 78.5946 361.247 187.164L487.643 183.961C506.585 183.395 525.002 190.87 538.342 204.21L596.085 261.953C602.492 268.36 604.931 277.421 602.596 286.179C600.261 294.937 593.647 301.583 584.897 303.957L495.086 328.311L438.857 384.532C435.741 387.648 430.705 387.648 427.589 384.532C424.473 381.416 424.473 376.38 427.589 373.264L479.762 321.091C300.372 136.792 149.009 37.7137 29.7772 26.5492C27.3148 26.3579 24.9081 27.1947 23.1629 28.9399C21.4177 30.6851 20.549 33.0997 20.7801 35.5541C31.9367 154.778 131.031 306.149 315.322 485.539L367.503 433.358C370.619 430.242 375.655 430.242 378.771 433.358C381.887 436.474 381.887 441.51 378.771 444.626L322.534 500.855L298.181 590.658C295.814 599.416 289.16 606.03 280.402 608.365C278.218 608.947 276.011 609.233 273.827 609.233C267.293 609.225 260.989 606.659 256.184 601.846L198.449 544.111C185.093 530.755 177.705 512.283 178.192 493.412L181.395 367.016C72.8336 240.309 13.5921 129.708 4.90595 37.0364ZM493.381 312.261L580.721 288.577C585.335 287.326 586.777 283.613 587.192 282.083C587.598 280.545 588.188 276.6 584.809 273.229L527.066 215.486C516.786 205.214 502.521 199.548 488.042 199.898L379.074 202.656C415.866 235.129 453.99 271.691 493.381 312.261ZM194.13 493.819C193.755 508.338 199.437 522.563 209.717 532.843L267.452 590.578C270.831 593.957 274.76 593.367 276.298 592.961C277.836 592.546 281.549 591.104 282.8 586.482L306.484 499.15C265.922 459.759 229.352 421.643 196.879 384.851L194.13 493.819Z" fill="#6366F1"/>
<path d="M522.539 628.438C524.579 628.438 526.619 627.657 528.173 626.104C531.289 622.988 531.289 617.951 528.173 614.835L397.912 484.566C394.797 481.451 389.76 481.451 386.644 484.566C383.528 487.682 383.528 492.719 386.644 495.835L516.905 626.104C518.467 627.657 520.507 628.438 522.539 628.438Z" fill="#3B82F6"/>
<path d="M650.928 564.655C652.968 564.655 655.008 563.874 656.562 562.32C659.678 559.204 659.678 554.168 656.562 551.052L498.688 393.178C495.572 390.062 490.536 390.062 487.42 393.178C484.304 396.294 484.304 401.33 487.42 404.446L645.294 562.32C646.855 563.882 648.888 564.655 650.928 564.655Z" fill="#3B82F6"/>
<path d="M436.179 640.193C438.22 640.193 440.26 639.412 441.814 637.858C444.929 634.742 444.929 629.706 441.814 626.59L371.416 556.184C368.3 553.068 363.263 553.068 360.147 556.184C357.032 559.3 357.032 564.336 360.147 567.452L430.545 637.858C432.099 639.412 434.139 640.193 436.179 640.193Z" fill="#3B82F6"/>
<path d="M615.657 431.27C617.697 431.27 619.737 430.489 621.291 428.935C624.407 425.819 624.407 420.783 621.291 417.667L563.723 360.107C560.607 356.991 555.571 356.991 552.455 360.107C549.339 363.223 549.339 368.259 552.455 371.383L610.023 428.943C611.577 430.489 613.617 431.27 615.657 431.27Z" fill="#3B82F6"/>
<path d="M563.994 686.843C568.393 686.843 571.963 683.281 571.963 678.874V644.958C571.963 640.551 568.393 636.989 563.994 636.989C559.595 636.989 556.025 640.551 556.025 644.958V678.874C556.025 683.281 559.587 686.843 563.994 686.843Z" fill="#3B82F6"/>
<path d="M547.036 669.885H580.944C585.343 669.885 588.913 666.323 588.913 661.916C588.913 657.509 585.343 653.947 580.944 653.947H547.036C542.637 653.947 539.067 657.509 539.067 661.916C539.067 666.323 542.637 669.885 547.036 669.885Z" fill="#3B82F6"/>
<path d="M657.167 489.738C661.566 489.738 665.136 486.176 665.136 481.77V447.854C665.136 443.447 661.566 439.885 657.167 439.885C652.768 439.885 649.198 443.447 649.198 447.854V481.77C649.198 486.176 652.761 489.738 657.167 489.738Z" fill="#3B82F6"/>
<path d="M640.209 472.78H674.117C678.516 472.78 682.086 469.218 682.086 464.812C682.086 460.405 678.516 456.843 674.117 456.843H640.209C635.81 456.843 632.24 460.405 632.24 464.812C632.24 469.218 635.81 472.78 640.209 472.78Z" fill="#3B82F6"/>
<path d="M696.558 627.777C703.356 627.777 709.747 625.123 714.56 620.31C719.365 615.513 722.011 609.114 722.011 602.324C722.011 595.535 719.365 589.136 714.56 584.322C704.631 574.409 688.485 574.409 678.564 584.322C673.751 589.136 671.105 595.527 671.105 602.324C671.105 609.122 673.751 615.505 678.556 620.318C683.369 625.124 689.761 627.777 696.558 627.777ZM696.558 592.809C698.997 592.809 701.427 593.734 703.284 595.59C705.085 597.391 706.073 599.774 706.073 602.324C706.073 604.858 705.085 607.249 703.284 609.05C699.69 612.644 693.418 612.644 689.832 609.05C688.031 607.249 687.043 604.866 687.043 602.324C687.043 599.782 688.031 597.391 689.832 595.59C691.689 593.742 694.128 592.809 696.558 592.809Z" fill="#3B82F6"/>
<path d="M477.698 699.171C484.216 699.171 490.735 696.685 495.692 691.728C500.505 686.923 503.151 680.532 503.151 673.726C503.151 666.929 500.505 660.538 495.692 655.732C485.77 645.819 469.625 645.819 459.696 655.732C454.883 660.538 452.237 666.929 452.237 673.726C452.237 680.532 454.883 686.923 459.696 691.728C464.661 696.693 471.179 699.171 477.698 699.171ZM477.698 664.227C480.136 664.227 482.567 665.152 484.424 667.008C486.225 668.809 487.213 671.192 487.213 673.734C487.213 676.276 486.225 678.667 484.424 680.468C480.71 684.174 474.678 684.174 470.972 680.468C469.171 678.667 468.183 676.284 468.183 673.734C468.183 671.2 469.171 668.809 470.972 667.008C472.821 665.16 475.259 664.227 477.698 664.227Z" fill="#3B82F6"/>
</svg>
