<svg width="400" height="400" viewBox="0 0 400 400" fill="none" xmlns="http://www.w3.org/2000/svg">
<path d="M95.5781 154.422L45.5781 104.422C44.997 103.841 44.536 103.152 44.2215 102.393C43.907 101.635 43.7451 100.821 43.7451 100C43.7451 99.1787 43.907 98.3654 44.2215 97.6066C44.536 96.8479 44.997 96.1586 45.5781 95.5781L95.5781 45.5781C96.1588 44.9974 96.8482 44.5368 97.6069 44.2225C98.3656 43.9083 99.1788 43.7465 100 43.7465C100.821 43.7465 101.634 43.9083 102.393 44.2225C103.152 44.5368 103.841 44.9974 104.422 45.5781C105.003 46.1588 105.463 46.8482 105.777 47.6069C106.092 48.3656 106.253 49.1788 106.253 50C106.253 50.8212 106.092 51.6344 105.777 52.3931C105.463 53.1518 105.003 53.8412 104.422 54.4219L58.8438 100L104.422 145.578C105.003 146.159 105.463 146.848 105.777 147.607C106.092 148.366 106.253 149.179 106.253 150C106.253 150.821 106.092 151.634 105.777 152.393C105.463 153.152 105.003 153.841 104.422 154.422C103.841 155.003 103.152 155.463 102.393 155.777C101.634 156.092 100.821 156.253 100 156.253C99.1788 156.253 98.3656 156.092 97.6069 155.777C96.8482 155.463 96.1588 155.003 95.5781 154.422ZM158.078 154.422C158.659 155.003 159.348 155.464 160.107 155.779C160.865 156.093 161.679 156.255 162.5 156.255C163.321 156.255 164.135 156.093 164.893 155.779C165.652 155.464 166.341 155.003 166.922 154.422L216.922 104.422C217.503 103.841 217.964 103.152 218.278 102.393C218.593 101.635 218.755 100.821 218.755 100C218.755 99.1787 218.593 98.3654 218.278 97.6066C217.964 96.8479 217.503 96.1586 216.922 95.5781L166.922 45.5781C166.341 44.9974 165.652 44.5368 164.893 44.2225C164.134 43.9083 163.321 43.7465 162.5 43.7465C161.679 43.7465 160.866 43.9083 160.107 44.2225C159.348 44.5368 158.659 44.9974 158.078 45.5781C157.497 46.1588 157.037 46.8482 156.723 47.6069C156.408 48.3656 156.247 49.1788 156.247 50C156.247 50.8212 156.408 51.6344 156.723 52.3931C157.037 53.1518 157.497 53.8412 158.078 54.4219L203.656 100L158.078 145.578C157.497 146.159 157.036 146.848 156.721 147.607C156.407 148.365 156.245 149.179 156.245 150C156.245 150.821 156.407 151.635 156.721 152.393C157.036 153.152 157.497 153.841 158.078 154.422ZM312.5 68.75H275C273.342 68.75 271.753 69.4085 270.581 70.5806C269.408 71.7527 268.75 73.3424 268.75 75C268.75 76.6576 269.408 78.2473 270.581 79.4194C271.753 80.5915 273.342 81.25 275 81.25H312.5C314.158 81.25 315.747 81.9085 316.919 83.0806C318.092 84.2527 318.75 85.8424 318.75 87.5V312.5C318.75 314.158 318.092 315.747 316.919 316.919C315.747 318.092 314.158 318.75 312.5 318.75H87.5C85.8424 318.75 84.2527 318.092 83.0806 316.919C81.9085 315.747 81.25 314.158 81.25 312.5V212.5C81.25 210.842 80.5915 209.253 79.4194 208.081C78.2473 206.908 76.6576 206.25 75 206.25C73.3424 206.25 71.7527 206.908 70.5806 208.081C69.4085 209.253 68.75 210.842 68.75 212.5V312.5C68.75 317.473 70.7254 322.242 74.2417 325.758C77.7581 329.275 82.5272 331.25 87.5 331.25H312.5C317.473 331.25 322.242 329.275 325.758 325.758C329.275 322.242 331.25 317.473 331.25 312.5V87.5C331.25 82.5272 329.275 77.7581 325.758 74.2417C322.242 70.7254 317.473 68.75 312.5 68.75Z" fill="#3B82F6"/>
</svg>
