<svg width="400" height="400" viewBox="0 0 400 400" fill="none" xmlns="http://www.w3.org/2000/svg">
<path d="M106.25 243.75C96.3609 243.75 86.6939 246.682 78.4715 252.177C70.249 257.671 63.8404 265.48 60.056 274.616C56.2716 283.752 55.2815 293.805 57.2107 303.505C59.14 313.204 63.902 322.113 70.8947 329.105C77.8873 336.098 86.7964 340.86 96.4955 342.789C106.195 344.719 116.248 343.728 125.384 339.944C134.52 336.16 142.329 329.751 147.823 321.529C153.318 313.306 156.25 303.639 156.25 293.75C156.25 280.489 150.982 267.771 141.605 258.395C132.229 249.018 119.511 243.75 106.25 243.75ZM106.25 331.25C98.8332 331.25 91.583 329.051 85.4161 324.93C79.2493 320.81 74.4428 314.953 71.6045 308.101C68.7662 301.248 68.0236 293.708 69.4706 286.434C70.9175 279.16 74.489 272.478 79.7335 267.233C84.978 261.989 91.6598 258.417 98.9341 256.971C106.208 255.524 113.748 256.266 120.601 259.105C127.453 261.943 133.31 266.749 137.43 272.916C141.551 279.083 143.75 286.333 143.75 293.75C143.75 303.696 139.799 313.234 132.767 320.267C125.734 327.299 116.196 331.25 106.25 331.25ZM58.0781 170.578L84.9062 143.75L58.0781 116.922C56.9054 115.749 56.2465 114.159 56.2465 112.5C56.2465 110.841 56.9054 109.251 58.0781 108.078C59.2509 106.905 60.8415 106.247 62.5 106.247C64.1585 106.247 65.7491 106.905 66.9219 108.078L93.75 134.906L120.578 108.078C121.751 106.905 123.341 106.247 125 106.247C126.659 106.247 128.249 106.905 129.422 108.078C130.595 109.251 131.253 110.841 131.253 112.5C131.253 114.159 130.595 115.749 129.422 116.922L102.594 143.75L129.422 170.578C130.003 171.159 130.463 171.848 130.777 172.607C131.092 173.366 131.253 174.179 131.253 175C131.253 175.821 131.092 176.634 130.777 177.393C130.463 178.152 130.003 178.841 129.422 179.422C128.841 180.003 128.152 180.463 127.393 180.777C126.634 181.092 125.821 181.253 125 181.253C124.179 181.253 123.366 181.092 122.607 180.777C121.848 180.463 121.159 180.003 120.578 179.422L93.75 152.594L66.9219 179.422C65.7491 180.595 64.1585 181.253 62.5 181.253C60.8415 181.253 59.2509 180.595 58.0781 179.422C56.9054 178.249 56.2465 176.659 56.2465 175C56.2465 173.341 56.9054 171.751 58.0781 170.578ZM341.922 320.578C343.095 321.751 343.753 323.341 343.753 325C343.753 326.659 343.095 328.249 341.922 329.422C340.749 330.595 339.159 331.253 337.5 331.253C335.841 331.253 334.251 330.595 333.078 329.422L306.25 302.594L279.422 329.422C278.249 330.595 276.659 331.253 275 331.253C273.341 331.253 271.751 330.595 270.578 329.422C269.405 328.249 268.747 326.659 268.747 325C268.747 323.341 269.405 321.751 270.578 320.578L297.406 293.75L270.578 266.922C269.405 265.749 268.747 264.159 268.747 262.5C268.747 260.841 269.405 259.251 270.578 258.078C271.751 256.905 273.341 256.247 275 256.247C276.659 256.247 278.249 256.905 279.422 258.078L306.25 284.906L333.078 258.078C333.659 257.497 334.348 257.037 335.107 256.723C335.866 256.408 336.679 256.247 337.5 256.247C338.321 256.247 339.134 256.408 339.893 256.723C340.652 257.037 341.341 257.497 341.922 258.078C342.503 258.659 342.963 259.348 343.277 260.107C343.592 260.866 343.753 261.679 343.753 262.5C343.753 263.321 343.592 264.134 343.277 264.893C342.963 265.652 342.503 266.341 341.922 266.922L315.094 293.75L341.922 320.578ZM269.719 174.625C260.625 207.438 232.578 235.797 201.516 243.563C201.005 243.689 200.48 243.752 199.953 243.75C198.424 243.761 196.945 243.211 195.794 242.204C194.643 241.197 193.902 239.804 193.709 238.287C193.517 236.77 193.887 235.236 194.749 233.973C195.612 232.711 196.908 231.809 198.391 231.437C224.859 224.812 249.75 199.531 257.578 171.297C263 151.719 263.125 122.063 232.984 91.9219L218.75 77.5937V125C218.75 126.658 218.092 128.247 216.919 129.419C215.747 130.592 214.158 131.25 212.5 131.25C210.842 131.25 209.253 130.592 208.081 129.419C206.908 128.247 206.25 126.658 206.25 125V62.5C206.25 60.8424 206.908 59.2527 208.081 58.0806C209.253 56.9085 210.842 56.25 212.5 56.25H275C276.658 56.25 278.247 56.9085 279.419 58.0806C280.592 59.2527 281.25 60.8424 281.25 62.5C281.25 64.1576 280.592 65.7473 279.419 66.9194C278.247 68.0915 276.658 68.75 275 68.75H227.594L241.922 83.0781C268.75 109.922 278.641 142.438 269.719 174.625Z" fill="#818CF8"/>
</svg>
