<svg width="400" height="400" viewBox="0 0 400 400" fill="none" xmlns="http://www.w3.org/2000/svg">
<path d="M181.063 339.062C180.716 340.406 179.932 341.596 178.834 342.444C177.736 343.293 176.387 343.752 175 343.75C174.473 343.752 173.949 343.689 173.438 343.562L123.438 331.062C122.742 330.89 122.081 330.599 121.484 330.203L83.9844 305.203C83.3011 304.748 82.7142 304.162 82.2573 303.48C81.8003 302.797 81.4822 302.032 81.3212 301.226C81.1601 300.421 81.1593 299.592 81.3186 298.786C81.478 297.981 81.7945 297.215 82.25 296.531C83.17 295.151 84.6005 294.193 86.2267 293.868C87.032 293.707 87.8611 293.706 88.6667 293.865C89.4723 294.025 90.2386 294.341 90.9219 294.797L127.516 319.203L176.563 331.437C177.359 331.641 178.108 332.001 178.766 332.495C179.424 332.988 179.977 333.607 180.395 334.316C180.814 335.024 181.088 335.808 181.202 336.623C181.317 337.437 181.269 338.266 181.063 339.062ZM388.516 187.891C387.748 190.226 386.524 192.386 384.915 194.245C383.305 196.104 381.343 197.625 379.141 198.719L341.234 217.687L254.453 304.469C253.682 305.218 252.73 305.756 251.689 306.029C250.649 306.303 249.556 306.304 248.516 306.031L148.516 281.031C147.75 280.846 147.027 280.511 146.391 280.047L59.2656 217.875L20.8906 198.672C18.6878 197.571 16.7233 196.047 15.1094 194.187C13.4955 192.327 12.2638 190.168 11.4847 187.832C10.7055 185.496 10.3942 183.029 10.5684 180.573C10.7426 178.116 11.399 175.718 12.5 173.516L51.3125 95.8906C52.4132 93.6878 53.937 91.7233 55.797 90.1094C57.657 88.4955 59.8166 87.2638 62.1527 86.4847C64.4887 85.7055 66.9553 85.3941 69.4117 85.5684C71.8681 85.7426 74.2661 86.3989 76.4688 87.5L113.125 105.828L198.281 81.4844C199.406 81.172 200.594 81.172 201.719 81.4844L286.875 105.828L323.531 87.5C325.734 86.3989 328.132 85.7426 330.588 85.5684C333.045 85.3941 335.511 85.7055 337.847 86.4847C340.183 87.2638 342.343 88.4955 344.203 90.1094C346.063 91.7233 347.587 93.6878 348.688 95.8906L387.5 173.531C388.609 175.731 389.27 178.129 389.444 180.586C389.618 183.043 389.303 185.51 388.516 187.844V187.891ZM26.4688 187.5L59.7031 204.109L104.109 115.297L70.8906 98.6875C70.1571 98.3191 69.3582 98.0988 68.5395 98.0392C67.7208 97.9796 66.8984 98.0819 66.1192 98.3402C65.3401 98.5984 64.6194 99.0076 63.9984 99.5445C63.3774 100.081 62.8683 100.735 62.5 101.469L23.6875 179.109C23.3191 179.843 23.0988 180.642 23.0392 181.461C22.9796 182.279 23.0819 183.102 23.3402 183.881C23.5984 184.66 24.0077 185.381 24.5445 186.002C25.0813 186.623 25.7352 187.132 26.4688 187.5ZM303.125 238.016L250.344 195.734C221.391 221.922 183.5 226.219 152.438 206.375C150.064 204.87 148.059 202.851 146.571 200.467C145.083 198.083 144.15 195.395 143.841 192.601C143.532 189.808 143.855 186.981 144.786 184.329C145.716 181.677 147.232 179.269 149.219 177.281L220.625 108.016C221.797 106.878 223.367 106.244 225 106.25H242.875L200 94L116.859 117.75L70.4844 210.516L152.672 269.219L248.078 293.078L303.125 238.016ZM329.875 211.266L283.641 118.75H227.531L158.016 186.187C157.368 186.836 156.876 187.623 156.576 188.489C156.275 189.355 156.175 190.277 156.281 191.187C156.381 192.136 156.692 193.049 157.193 193.86C157.693 194.672 158.37 195.36 159.172 195.875C180.969 209.797 215.109 213.75 245.563 183.062C246.65 181.968 248.104 181.315 249.645 181.229C251.185 181.142 252.703 181.628 253.906 182.594L312.047 229.156L329.875 211.266ZM376.297 179.109L337.5 101.469C337.132 100.735 336.623 100.081 336.002 99.5445C335.381 99.0076 334.66 98.5984 333.881 98.3402C333.102 98.0819 332.279 97.9796 331.461 98.0392C330.642 98.0988 329.843 98.3191 329.109 98.6875L295.891 115.297L340.297 204.109L373.531 187.5C374.265 187.132 374.919 186.623 375.456 186.002C375.992 185.381 376.402 184.66 376.66 183.881C376.918 183.102 377.02 182.279 376.961 181.461C376.901 180.642 376.681 179.843 376.312 179.109H376.297Z" fill="#818CF8"/>
</svg>
