<svg width="400" height="400" viewBox="0 0 400 400" fill="none" xmlns="http://www.w3.org/2000/svg">
<path d="M200 43.75C169.097 43.75 138.887 52.9139 113.192 70.0829C87.497 87.2518 67.47 111.655 55.6438 140.206C43.8176 168.757 40.7234 200.173 46.7523 230.483C52.7812 260.792 67.6626 288.633 89.5146 310.485C111.367 332.337 139.208 347.219 169.517 353.248C199.827 359.277 231.243 356.182 259.794 344.356C288.345 332.53 312.748 312.503 329.917 286.808C347.086 261.113 356.25 230.903 356.25 200C356.205 158.574 339.728 118.858 310.435 89.5648C281.142 60.2721 241.426 43.7955 200 43.75ZM305.922 297.078L252.797 243.953C263.093 231.615 268.733 216.054 268.733 199.984C268.733 183.914 263.093 168.354 252.797 156.016L305.922 102.891C330.249 129.368 343.748 164.013 343.748 199.969C343.748 235.925 330.249 270.57 305.922 297.047V297.078ZM143.75 200C143.75 188.875 147.049 177.999 153.23 168.749C159.411 159.499 168.196 152.289 178.474 148.032C188.752 143.774 200.062 142.66 210.974 144.831C221.885 147.001 231.908 152.359 239.775 160.225C247.641 168.092 252.999 178.115 255.169 189.026C257.34 199.938 256.226 211.248 251.968 221.526C247.711 231.804 240.501 240.589 231.251 246.77C222.001 252.951 211.125 256.25 200 256.25C185.082 256.25 170.774 250.324 160.225 239.775C149.676 229.226 143.75 214.918 143.75 200ZM297.078 94.0781L243.953 147.203C231.615 136.907 216.054 131.267 199.984 131.267C183.914 131.267 168.354 136.907 156.016 147.203L102.891 94.0781C129.368 69.7513 164.013 56.2517 199.969 56.2517C235.925 56.2517 270.57 69.7513 297.047 94.0781H297.078ZM94.0781 102.922L147.203 156.047C136.907 168.385 131.267 183.946 131.267 200.016C131.267 216.086 136.907 231.646 147.203 243.984L94.0781 297.109C69.7513 270.632 56.2517 235.987 56.2517 200.031C56.2517 164.075 69.7513 129.43 94.0781 102.953V102.922ZM102.922 305.922L156.047 252.797C168.385 263.093 183.946 268.733 200.016 268.733C216.086 268.733 231.646 263.093 243.984 252.797L297.109 305.922C270.632 330.249 235.987 343.748 200.031 343.748C164.075 343.748 129.43 330.249 102.953 305.922H102.922Z" fill="#818CF8"/>
</svg>
