<svg width="400" height="400" viewBox="0 0 400 400" fill="none" xmlns="http://www.w3.org/2000/svg">
<path d="M325 218.75H75C70.0272 218.75 65.2581 220.725 61.7417 224.242C58.2254 227.758 56.25 232.527 56.25 237.5V312.5C56.25 317.473 58.2254 322.242 61.7417 325.758C65.2581 329.275 70.0272 331.25 75 331.25H325C329.973 331.25 334.742 329.275 338.258 325.758C341.775 322.242 343.75 317.473 343.75 312.5V237.5C343.75 232.527 341.775 227.758 338.258 224.242C334.742 220.725 329.973 218.75 325 218.75ZM331.25 312.5C331.25 314.158 330.592 315.747 329.419 316.919C328.247 318.092 326.658 318.75 325 318.75H75C73.3424 318.75 71.7527 318.092 70.5806 316.919C69.4085 315.747 68.75 314.158 68.75 312.5V237.5C68.75 235.842 69.4085 234.253 70.5806 233.081C71.7527 231.908 73.3424 231.25 75 231.25H325C326.658 231.25 328.247 231.908 329.419 233.081C330.592 234.253 331.25 235.842 331.25 237.5V312.5ZM325 68.75H75C70.0272 68.75 65.2581 70.7254 61.7417 74.2417C58.2254 77.7581 56.25 82.5272 56.25 87.5V162.5C56.25 167.473 58.2254 172.242 61.7417 175.758C65.2581 179.275 70.0272 181.25 75 181.25H325C329.973 181.25 334.742 179.275 338.258 175.758C341.775 172.242 343.75 167.473 343.75 162.5V87.5C343.75 82.5272 341.775 77.7581 338.258 74.2417C334.742 70.7254 329.973 68.75 325 68.75ZM331.25 162.5C331.25 164.158 330.592 165.747 329.419 166.919C328.247 168.092 326.658 168.75 325 168.75H75C73.3424 168.75 71.7527 168.092 70.5806 166.919C69.4085 165.747 68.75 164.158 68.75 162.5V87.5C68.75 85.8424 69.4085 84.2527 70.5806 83.0806C71.7527 81.9085 73.3424 81.25 75 81.25H325C326.658 81.25 328.247 81.9085 329.419 83.0806C330.592 84.2527 331.25 85.8424 331.25 87.5V162.5ZM293.75 275C293.75 277.472 293.017 279.889 291.643 281.945C290.27 284 288.318 285.602 286.034 286.548C283.749 287.495 281.236 287.742 278.811 287.26C276.387 286.778 274.159 285.587 272.411 283.839C270.663 282.091 269.472 279.863 268.99 277.439C268.508 275.014 268.755 272.501 269.702 270.216C270.648 267.932 272.25 265.98 274.305 264.607C276.361 263.233 278.778 262.5 281.25 262.5C284.565 262.5 287.745 263.817 290.089 266.161C292.433 268.505 293.75 271.685 293.75 275ZM293.75 125C293.75 127.472 293.017 129.889 291.643 131.945C290.27 134 288.318 135.602 286.034 136.548C283.749 137.495 281.236 137.742 278.811 137.26C276.387 136.778 274.159 135.587 272.411 133.839C270.663 132.091 269.472 129.863 268.99 127.439C268.508 125.014 268.755 122.501 269.702 120.216C270.648 117.932 272.25 115.98 274.305 114.607C276.361 113.233 278.778 112.5 281.25 112.5C284.565 112.5 287.745 113.817 290.089 116.161C292.433 118.505 293.75 121.685 293.75 125Z" fill="#3B82F6"/>
</svg>
