<svg width="400" height="400" viewBox="0 0 400 400" fill="none" xmlns="http://www.w3.org/2000/svg">
<path d="M337.5 81.25H62.5C60.8424 81.25 59.2527 81.9085 58.0806 83.0806C56.9085 84.2527 56.25 85.8424 56.25 87.5V325C56.25 329.973 58.2254 334.742 61.7417 338.258C65.2581 341.775 70.0272 343.75 75 343.75H137.5C142.473 343.75 147.242 341.775 150.758 338.258C154.275 334.742 156.25 329.973 156.25 325V243.75H243.75V275C243.75 279.973 245.725 284.742 249.242 288.258C252.758 291.775 257.527 293.75 262.5 293.75H325C329.973 293.75 334.742 291.775 338.258 288.258C341.775 284.742 343.75 279.973 343.75 275V87.5C343.75 85.8424 343.092 84.2527 341.919 83.0806C340.747 81.9085 339.158 81.25 337.5 81.25ZM143.75 325C143.75 326.658 143.092 328.247 141.919 329.419C140.747 330.592 139.158 331.25 137.5 331.25H75C73.3424 331.25 71.7527 330.592 70.5806 329.419C69.4085 328.247 68.75 326.658 68.75 325V193.75H143.75V325ZM143.75 181.25H68.75V93.75H143.75V181.25ZM243.75 231.25H156.25V93.75H243.75V231.25ZM331.25 275C331.25 276.658 330.592 278.247 329.419 279.419C328.247 280.592 326.658 281.25 325 281.25H262.5C260.842 281.25 259.253 280.592 258.081 279.419C256.908 278.247 256.25 276.658 256.25 275V193.75H331.25V275ZM331.25 181.25H256.25V93.75H331.25V181.25Z" fill="#3B82F6"/>
</svg>
