<svg width="400" height="400" viewBox="0 0 400 400" fill="none" xmlns="http://www.w3.org/2000/svg">
<path d="M325 68.75H75C70.0272 68.75 65.2581 70.7254 61.7417 74.2417C58.2254 77.7581 56.25 82.5272 56.25 87.5V179.328C56.25 315.063 171.156 360.109 194.187 367.766C197.958 369.036 202.042 369.036 205.813 367.766C228.844 360.109 343.75 315.063 343.75 179.328V87.5C343.75 82.5272 341.775 77.7581 338.258 74.2417C334.742 70.7254 329.973 68.75 325 68.75ZM331.25 179.359C331.25 306.516 223.437 348.75 201.875 355.922C200.663 356.36 199.337 356.36 198.125 355.922C176.563 348.75 68.75 306.516 68.75 179.359V87.5C68.75 85.8424 69.4085 84.2527 70.5806 83.0806C71.7527 81.9085 73.3424 81.25 75 81.25H325C326.658 81.25 328.247 81.9085 329.419 83.0806C330.592 84.2527 331.25 85.8424 331.25 87.5V179.359ZM266.922 158.078C267.503 158.659 267.964 159.348 268.279 160.107C268.593 160.865 268.755 161.679 268.755 162.5C268.755 163.321 268.593 164.135 268.279 164.893C267.964 165.652 267.503 166.341 266.922 166.922L179.422 254.422C178.841 255.003 178.152 255.464 177.393 255.779C176.635 256.093 175.821 256.255 175 256.255C174.179 256.255 173.365 256.093 172.607 255.779C171.848 255.464 171.159 255.003 170.578 254.422L133.078 216.922C131.905 215.749 131.247 214.159 131.247 212.5C131.247 210.841 131.905 209.251 133.078 208.078C134.251 206.905 135.841 206.247 137.5 206.247C139.159 206.247 140.749 206.905 141.922 208.078L175 241.156L258.078 158.078C258.659 157.497 259.348 157.036 260.107 156.722C260.865 156.407 261.679 156.245 262.5 156.245C263.321 156.245 264.135 156.407 264.893 156.722C265.652 157.036 266.341 157.497 266.922 158.078Z" fill="#3B82F6"/>
</svg>
