<svg width="400" height="400" viewBox="0 0 400 400" fill="none" xmlns="http://www.w3.org/2000/svg">
<path d="M330.875 108.844L193.375 33.5625C190.616 32.0526 187.521 31.2613 184.375 31.2613C181.229 31.2613 178.134 32.0526 175.375 33.5625L37.875 108.844C34.9253 110.458 32.4639 112.835 30.7485 115.727C29.0332 118.619 28.127 121.919 28.125 125.281V274.719C28.127 278.081 29.0332 281.381 30.7485 284.273C32.4639 287.165 34.9253 289.542 37.875 291.156L175.375 366.437C178.132 367.954 181.228 368.75 184.375 368.75C187.522 368.75 190.618 367.954 193.375 366.437L330.875 291.156C333.825 289.542 336.286 287.165 338.001 284.273C339.717 281.381 340.623 278.081 340.625 274.719V125.281C340.623 121.919 339.717 118.619 338.001 115.727C336.286 112.835 333.825 110.458 330.875 108.844ZM181.375 44.5312C182.292 44.0195 183.325 43.7508 184.375 43.7508C185.425 43.7508 186.458 44.0195 187.375 44.5312L322.922 118.75L263.281 151.391C262.998 151.156 262.695 150.947 262.375 150.766L124.875 75.4844L181.375 44.5312ZM184.375 194.531L45.8281 118.75L111.812 82.6094L250.359 158.453L184.375 194.531ZM43.875 280.156C42.8933 279.619 42.0738 278.828 41.5022 277.866C40.9305 276.904 40.6275 275.807 40.625 274.687V130.141L178.125 205.391V353.687L43.875 280.156ZM324.875 280.156L190.625 353.594V205.391L253.125 171.187V237.5C253.125 239.158 253.783 240.747 254.956 241.919C256.128 243.092 257.717 243.75 259.375 243.75C261.033 243.75 262.622 243.092 263.794 241.919C264.967 240.747 265.625 239.158 265.625 237.5V164.344L328.125 130.141V274.719C328.122 275.838 327.82 276.936 327.248 277.898C326.676 278.86 325.857 279.65 324.875 280.187V280.156Z" fill="#3B82F6"/>
</svg>
